# xmcd
# 
# Track frame offsets:
#     150
#     24870
#     42530
#     61016
#     80117
#     97314
#     113533
#     132684
#     151817
#     174869
#     189104
#     203357
#     219069
#     234762
#     264099
# 
# Disc length: 4440
# 
# Revision: 12
# Processed by: cddbd v1.5.2PL0 Copyright (c) Steve Scherf et al.
# Submitted via: fre:ac v1.0.31
# 
DISCID=af11560f
DTITLE=Hélène Segara - Humaine
DYEAR=2003
DGENRE=Chanson
TTITLE0=Humaine
TTITLE1=Encore une fois
TTITLE2=L'amour est un soleil
TTITLE3=Elle rentrait de l'école
TTITLE4=Regarde
TTITLE5=On ne dit pas
TTITLE6=L'île de nous
TTITLE7=Petite vie
TTITLE8=On n'oublie jamais rien, on vit avec (feat. Laura Pausini)
TTITLE9=Ma vie tient en deux mots
TTITLE10=Je n'oublie que toi
TTITLE11=Petites douleurs
TTITLE12=Tant bien que mal
TTITLE13=Je rêve
TTITLE14=DATA
EXTD=
EXTT0=
EXTT1=
EXTT2=
EXTT3=
EXTT4=
EXTT5=
EXTT6=
EXTT7=
EXTT8=
EXTT9=
EXTT10=
EXTT11=
EXTT12=
EXTT13=
EXTT14=
PLAYORDER=
